<?xml version="1.0" standalone="no"?>
<!DOCTYPE svg PUBLIC "-//W3C//DTD SVG 20010904//EN"
 "http://www.w3.org/TR/2001/REC-SVG-20010904/DTD/svg10.dtd">
<svg version="1.0" xmlns="http://www.w3.org/2000/svg"
 width="717.000000pt" height="717.000000pt" viewBox="0 0 717.000000 717.000000"
 preserveAspectRatio="xMidYMid meet">
<metadata>
Created by potrace 1.14, written by Peter Selinger 2001-2017
</metadata>
<g transform="translate(0.000000,717.000000) scale(0.100000,-0.100000)"
fill="#000000" stroke="none">
<path d="M1712 6109 c-153 -30 -287 -158 -328 -313 -28 -104 -10 -227 48 -323
21 -34 353 -373 972 -991 1027 -1026 977 -980 1120 -1004 48 -8 84 -8 132 0
143 24 93 -21 1117 1001 516 515 952 957 968 984 108 167 84 389 -57 530 -94
93 -234 140 -362 120 -147 -23 -111 9 -960 -837 l-772 -771 -768 767 c-815
814 -798 799 -929 833 -62 16 -114 18 -181 4z"/>
<path d="M1635 4124 c-178 -24 -332 -129 -414 -283 -49 -93 -65 -154 -65 -261
0 -153 52 -278 159 -385 186 -186 468 -212 689 -65 129 87 206 208 233 367 13
81 13 99 -1 174 -47 253 -247 435 -496 452 -41 3 -88 3 -105 1z"/>
<path d="M5382 4119 c-73 -13 -146 -44 -219 -96 -225 -157 -293 -457 -160
-707 45 -85 141 -177 230 -221 73 -36 183 -65 247 -65 64 0 174 29 249 66 131
64 241 200 282 349 22 78 17 227 -10 305 -59 171 -209 314 -376 359 -59 16
-183 21 -243 10z"/>
<path d="M1452 2538 c74 -209 222 -471 373 -658 304 -378 742 -658 1210 -774
214 -53 283 -60 555 -60 272 0 350 8 555 60 567 142 1068 509 1378 1008 64
103 156 289 191 386 15 41 32 85 36 98 l10 22 -434 0 -433 0 -66 -102 c-215
-335 -549 -566 -939 -649 -147 -32 -383 -37 -533 -11 -422 72 -774 304 -1002
659 l-66 103 -432 0 -432 0 29 -82z"/>
</g>
</svg>
